<?xml version="1.0" encoding="UTF-8"?><svg id="a" xmlns="http://www.w3.org/2000/svg" xmlns:xlink="http://www.w3.org/1999/xlink" viewBox="0 0 595.61 295.43" fill="#ffffff"><defs><style>.c{fill:#273c8a;}.d{clip-path:url(#b);}.e{fill:#e93d48;}.f{fill:none;}</style><clipPath id="b"><path class="f" d="M299.25,5.59c-64.49,0-116.78,51.75-116.78,115.59s52.28,115.59,116.78,115.59,116.78-51.75,116.78-115.59S363.74,5.59,299.25,5.59Zm0,172.76c-31.9,0-57.75-25.59-57.75-57.17s25.86-57.17,57.75-57.17,57.75,25.59,57.75,57.17-25.86,57.17-57.75,57.17Z"/></clipPath></defs><g><path d="M135.71,294v-26.44l.72-.71h18.05s.72,0,.72,.71v2.86l-.72,.71h-13.72v7.15h13c.72,0,.72,.71,.72,.71v3.57h-13.72v10.72q0,.71-.72,.71h-4.33Z"/><path d="M193.47,294v-26.44l.72-.71h9.39c1.44,0,2.89,.71,3.61,.71,1.44,0,2.17,.71,3.61,1.43,.72,.71,1.44,1.43,2.17,2.14,.72,1.43,.72,2.86,.72,4.29,0,3.57-1.44,6.43-5.78,7.86l7.22,10.01q0,.71-.72,.71h-2.89c-.72,0-1.44,0-1.44-.71l-7.22-10.01h-4.33v10.01q0,.71-.72,.71h-4.33Zm10.11-22.87h-5.05v8.58h5.05c3.61,0,5.78-1.43,5.78-4.29,0-2.86-2.17-4.29-5.78-4.29Z"/><path d="M249.79,294l13.72-26.44v-.71h.72s.72,0,.72,.71l13.72,26.44-.72,.71h-3.61c-.72,0-1.44-.71-1.44-.71l-2.89-5.72h-12.27l-2.89,5.72c0,.71-.72,.71-.72,.71h-3.61s-.72,0-.72-.71Zm14.44-19.3l-5.05,9.29h9.39l-4.33-9.29Z"/><path d="M315.49,294v-27.16h.72l18.05,18.58v-17.87c0-.71,.72-.71,.72-.71h2.89q.72,0,.72,.71v27.87c-.72,0-.72-.71-.72-.71l-17.33-18.58v17.87s-.72,.71-1.44,.71h-2.89s-.72,0-.72-.71Z"/><path d="M400.69,287.57l1.44,2.14c.72,0,.72,.71,0,1.43-1.44,.71-2.89,2.14-5.05,2.86-1.44,.71-3.61,.71-5.05,.71-4.33,0-7.94-1.43-10.11-4.29-2.89-2.86-4.33-5.72-4.33-10.01,0-3.57,1.44-7.15,4.33-10.01,2.17-2.86,5.78-4.29,10.11-4.29,1.44,0,3.61,.71,5.05,1.43,2.17,.71,3.61,1.43,5.05,2.86,.72,0,.72,.71,0,.71l-1.44,2.14c-.72,.71-1.44,.71-1.44,0-2.17-2.14-4.33-2.86-7.22-2.86s-5.05,.71-6.5,2.86c-2.17,2.14-2.89,4.29-2.89,7.15s.72,5,2.89,7.15c1.44,1.43,3.61,2.86,6.5,2.86s5.05-.71,7.22-2.86h1.44Z"/><path d="M440.4,294v-26.44h.72v-.71h18.05s.72,0,.72,.71v2.86c0,.71-.72,.71-.72,.71h-13.72v7.15h13q.72,0,.72,.71v3.57h-13.72v7.86h14.44v3.57c0,.71-.72,.71-.72,.71h-18.05v-.71h-.72Z"/><rect class="c" x=".7" y="276.85" width="110.47" height="7.15"/><rect class="e" x="484.44" y="276.85" width="110.47" height="7.15"/></g><g><g class="d"><rect x="177.8" y="126.06" width="242.9" height="110.97"/><rect x="177.81" y="105.6" width="242.87" height="10.11"/><rect x="181.22" y="86.5" width="236.06" height="8.99"/><rect x="185.19" y="69.65" width="228.12" height="6.74"/><rect x="197.11" y="49.43" width="204.28" height="5.62"/><rect x="210.16" y="29.21" width="178.18" height="5.62"/><rect x="259.53" width="79.44" height="10.11"/></g><path d="M158.49,89.89H80.33c-9.41,0-16.65,1.43-23.16,4.3-5.79,2.15-8.68,6.45-8.68,12.89,0,3.58,1.45,6.45,5.07,8.6,3.62,2.15,7.96,4.3,13.75,5.73,5.79,1.43,12.3,2.87,19.54,4.3,7.24,1.43,14.47,2.87,22.43,4.3,7.24,2.15,15.2,3.58,22.43,6.45,7.24,2.15,13.75,5.73,19.54,10.03,5.79,3.58,10.13,8.6,13.75,14.33,3.62,5.73,5.07,12.89,5.07,21.49,0,10.03-2.17,17.91-7.24,24.36-4.34,6.45-10.13,12.18-18.09,16.48-7.24,4.3-15.92,7.16-26.05,9.31-10.13,2.15-20.26,2.87-31.12,2.87H0v-36.53H91.91c4.34,0,8.68,0,13.03-.72,3.62,0,7.24-1.43,10.13-2.15,2.89-1.43,5.07-2.87,7.24-5.01,1.45-2.15,2.17-4.3,2.17-7.16,0-3.58-1.45-7.16-5.07-9.31-3.62-2.87-7.96-5.01-13.75-6.45-5.79-1.43-12.3-2.87-19.54-4.3-7.24-1.43-14.47-2.87-22.43-5.01-7.96-1.43-15.2-3.58-22.43-6.45-7.24-2.15-13.75-5.73-19.54-9.31-5.79-4.3-10.13-9.31-13.75-15.04-3.62-5.73-5.07-12.89-5.07-21.49,0-9.31,2.17-17.19,5.79-24.36,4.34-6.45,10.13-12.18,16.65-16.48,7.24-4.3,15.2-7.16,24.61-8.6,8.68-2.15,18.09-2.87,28.22-2.87h80.33v35.82Z"/><polygon points="595.61 195.19 595.61 229.58 442.91 229.58 442.91 89.17 424.09 58.37 484.88 58.37 484.88 195.19 595.61 195.19"/></g></svg>
